<svg width="80" height="80" viewBox="0 0 80 80" fill="none" xmlns="http://www.w3.org/2000/svg">
    <path d="M33.5001 8.43345L13.4334 21.5335C7.00007 25.7335 7.00007 35.1335 13.4334 39.3335L33.5001 52.4335C37.1001 54.8001 43.0334 54.8001 46.6334 52.4335L66.6001 39.3335C73.0001 35.1335 73.0001 25.7668 66.6001 21.5668L46.6334 8.46679C43.0334 6.06679 37.1001 6.06679 33.5001 8.43345Z" stroke="white" stroke-width="5" stroke-linecap="round" stroke-linejoin="round" />
    <path d="M18.7667 43.5999L18.7333 59.2332C18.7333 63.4665 22 67.9999 26 69.3332L36.6333 72.8665C38.4667 73.4665 41.5 73.4665 43.3667 72.8665L54 69.3332C58 67.9999 61.2667 63.4665 61.2667 59.2332V43.7665" stroke="white" stroke-width="5" stroke-linecap="round" stroke-linejoin="round" />
    <path d="M71.3334 50V30" stroke="white" stroke-width="5" stroke-linecap="round" stroke-linejoin="round" />
</svg>