<svg width="80" height="80" viewBox="0 0 80 80" fill="none" xmlns="http://www.w3.org/2000/svg">
    <path d="M66.5666 33.3334H13.2333V60C13.2333 70 16.5666 73.3334 26.5666 73.3334H53.2333C63.2333 73.3334 66.5666 70 66.5666 60V33.3334Z" stroke="white" stroke-width="5" stroke-miterlimit="10" stroke-linecap="round" stroke-linejoin="round" />
    <path d="M71.6667 23.3333V26.6666C71.6667 30.3333 69.9 33.3333 65 33.3333H15C9.90004 33.3333 8.33337 30.3333 8.33337 26.6666V23.3333C8.33337 19.6666 9.90004 16.6666 15 16.6666H65C69.9 16.6666 71.6667 19.6666 71.6667 23.3333Z" stroke="white" stroke-width="5" stroke-miterlimit="10" stroke-linecap="round" stroke-linejoin="round" />
    <path d="M38.8001 16.6667H20.4001C19.2667 15.4334 19.3001 13.5334 20.5001 12.3334L25.2334 7.60005C26.4667 6.36672 28.5001 6.36672 29.7334 7.60005L38.8001 16.6667Z" stroke="white" stroke-width="5" stroke-miterlimit="10" stroke-linecap="round" stroke-linejoin="round" />
    <path d="M59.5666 16.6667H41.1666L50.2333 7.60005C51.4666 6.36672 53.5 6.36672 54.7333 7.60005L59.4666 12.3334C60.6666 13.5334 60.7 15.4334 59.5666 16.6667Z" stroke="white" stroke-width="5" stroke-miterlimit="10" stroke-linecap="round" stroke-linejoin="round" />
    <path d="M29.8 33.3334V50.4667C29.8 53.1334 32.7334 54.7 34.9667 53.2667L38.1001 51.2C39.2334 50.4667 40.6667 50.4667 41.7667 51.2L44.7334 53.2C46.9334 54.6667 49.9001 53.1 49.9001 50.4334V33.3334H29.8Z" stroke="white" stroke-width="5" stroke-miterlimit="10" stroke-linecap="round" stroke-linejoin="round" />
</svg>