<svg width="100" height="100" viewBox="0 0 100 100" fill="none" xmlns="http://www.w3.org/2000/svg">
    <path d="M17.7501 45.9164V66.6248C17.7501 74.2081 17.7501 74.2081 24.9167 79.0414L44.6251 90.4164C47.5834 92.1248 52.4167 92.1248 55.3751 90.4164L75.0834 79.0414C82.2501 74.2081 82.2501 74.2081 82.2501 66.6248V45.9164C82.2501 38.3331 82.2501 38.3331 75.0834 33.4998L55.3751 22.1248C52.4167 20.4164 47.5834 20.4164 44.6251 22.1248L24.9167 33.4998C17.7501 38.3331 17.7501 38.3331 17.7501 45.9164Z" stroke="white" stroke-width="5" stroke-linecap="round" stroke-linejoin="round" />
    <path d="M72.9166 31.7917V20.8334C72.9166 12.5 68.75 8.33337 60.4166 8.33337H39.5833C31.25 8.33337 27.0833 12.5 27.0833 20.8334V31.5" stroke="white" stroke-width="5" stroke-linecap="round" stroke-linejoin="round" />
    <path d="M52.6251 45.7915L55.0001 49.4998C55.3751 50.0832 56.2084 50.6665 56.8334 50.8332L61.0834 51.9165C63.7084 52.5832 64.4167 54.8332 62.7084 56.9165L59.9167 60.2915C59.5001 60.8332 59.1667 61.7915 59.2084 62.4582L59.4584 66.8332C59.6251 69.5415 57.7084 70.9165 55.2084 69.9165L51.1251 68.2915C50.5001 68.0415 49.4584 68.0415 48.8334 68.2915L44.7501 69.9165C42.2501 70.9165 40.3334 69.4998 40.5001 66.8332L40.7501 62.4582C40.7917 61.7915 40.4584 60.7915 40.0417 60.2915L37.2501 56.9165C35.5417 54.8332 36.2501 52.5832 38.8751 51.9165L43.1251 50.8332C43.7917 50.6665 44.6251 50.0415 44.9584 49.4998L47.3334 45.7915C48.8334 43.5415 51.1667 43.5415 52.6251 45.7915Z" stroke="white" stroke-width="5" stroke-linecap="round" stroke-linejoin="round" />
</svg>